<?xml version="1.0" encoding="utf-8"?>
<svg viewBox="0 0 500 500" xmlns="http://www.w3.org/2000/svg">
  <path d="M 39.345 105.682 L 39.345 405.682 L 459.894 405.682 L 459.894 105.682 L 39.345 105.682 Z M 450.683 396.479 L 48.365 396.479 L 48.365 114.696 L 450.683 114.696 L 450.683 396.479 Z M 450.683 396.479" fill-opacity="1" fill-rule="nonzero" style="fill: rgb(255, 255, 255);"/>
  <path d="M 54.114 121.268 L 54.114 391.363 L 443.834 391.363 L 443.834 121.268 L 54.114 121.268 Z M 434.942 382.47 L 62.822 382.47 L 62.822 129.97 L 434.942 129.97 L 434.942 382.47 Z M 434.942 382.47" fill-opacity="1" fill-rule="nonzero" style="fill: rgb(255, 255, 255);"/>
  <g fill="rgb(85.099792%, 85.099792%, 85.099792%)" fill-opacity="1" transform="matrix(1.246109, 0, 0, 1.246109, 16.341471, 22.123711)" style="">
    <g transform="matrix(1, 0, 0, 1, 93.41793060302734, 218.26748657226562)">
      <path d="M 10.171875 -45.90625 C 9.148438 -48.476562 8.160156 -50.273438 7.203125 -51.296875 C 6.242188 -52.316406 4.832031 -53.007812 2.96875 -53.375 C 2.726562 -53.425781 2.367188 -53.5 1.890625 -53.59375 C 1.410156 -53.6875 1.09375 -53.867188 0.9375 -54.140625 C 0.789062 -54.410156 0.71875 -54.84375 0.71875 -55.4375 C 0.71875 -56.15625 0.910156 -56.632812 1.296875 -56.875 C 1.691406 -57.113281 2.3125 -57.234375 3.15625 -57.234375 C 7.65625 -57.234375 11.070312 -56.539062 13.40625 -55.15625 C 15.75 -53.78125 17.609375 -51.328125 18.984375 -47.796875 L 29.25 -14.84375 L 29.609375 -14.84375 L 40.59375 -56.796875 L 45.265625 -56.796875 L 59.9375 -14.84375 L 60.203125 -14.84375 L 70.375 -48.78125 C 70.613281 -49.675781 70.734375 -50.457031 70.734375 -51.125 C 70.734375 -51.957031 70.429688 -52.507812 69.828125 -52.78125 C 69.234375 -53.050781 68.097656 -53.1875 66.421875 -53.1875 L 65.875 -53.1875 C 65.28125 -53.1875 64.863281 -53.289062 64.625 -53.5 C 64.382812 -53.707031 64.234375 -54.234375 64.171875 -55.078125 C 64.171875 -55.617188 64.304688 -56.082031 64.578125 -56.46875 C 64.847656 -56.863281 65.222656 -57.0625 65.703125 -57.0625 C 69.597656 -56.882812 72.867188 -56.796875 75.515625 -56.796875 C 76.648438 -56.796875 78.835938 -56.851562 82.078125 -56.96875 L 83.96875 -57.0625 C 84.507812 -57.0625 84.914062 -56.863281 85.1875 -56.46875 C 85.457031 -56.082031 85.59375 -55.617188 85.59375 -55.078125 C 85.53125 -54.234375 85.378906 -53.707031 85.140625 -53.5 C 84.898438 -53.289062 84.476562 -53.1875 83.875 -53.1875 C 81.238281 -53.1875 79.1875 -52.75 77.71875 -51.875 C 76.25 -51.007812 75.179688 -49.40625 74.515625 -47.0625 L 59.765625 0.90625 L 55.53125 0.90625 L 40.953125 -42.03125 L 29.34375 0.90625 L 25.109375 0.90625 Z M 10.171875 -45.90625 " style="fill: rgb(255, 255, 255);"/>
    </g>
  </g>
  <g fill="rgb(85.099792%, 85.099792%, 85.099792%)" fill-opacity="1" transform="matrix(1.246109, 0, 0, 1.246109, 16.341471, 22.123711)" style="">
    <g transform="matrix(1, 0, 0, 1, 197.53436279296875, 218.26748657226562)">
      <path d="M 10.171875 -45.90625 C 9.148438 -48.476562 8.160156 -50.273438 7.203125 -51.296875 C 6.242188 -52.316406 4.832031 -53.007812 2.96875 -53.375 C 2.726562 -53.425781 2.367188 -53.5 1.890625 -53.59375 C 1.410156 -53.6875 1.09375 -53.867188 0.9375 -54.140625 C 0.789062 -54.410156 0.71875 -54.84375 0.71875 -55.4375 C 0.71875 -56.15625 0.910156 -56.632812 1.296875 -56.875 C 1.691406 -57.113281 2.3125 -57.234375 3.15625 -57.234375 C 7.65625 -57.234375 11.070312 -56.539062 13.40625 -55.15625 C 15.75 -53.78125 17.609375 -51.328125 18.984375 -47.796875 L 29.25 -14.84375 L 29.609375 -14.84375 L 40.59375 -56.796875 L 45.265625 -56.796875 L 59.9375 -14.84375 L 60.203125 -14.84375 L 70.375 -48.78125 C 70.613281 -49.675781 70.734375 -50.457031 70.734375 -51.125 C 70.734375 -51.957031 70.429688 -52.507812 69.828125 -52.78125 C 69.234375 -53.050781 68.097656 -53.1875 66.421875 -53.1875 L 65.875 -53.1875 C 65.28125 -53.1875 64.863281 -53.289062 64.625 -53.5 C 64.382812 -53.707031 64.234375 -54.234375 64.171875 -55.078125 C 64.171875 -55.617188 64.304688 -56.082031 64.578125 -56.46875 C 64.847656 -56.863281 65.222656 -57.0625 65.703125 -57.0625 C 69.597656 -56.882812 72.867188 -56.796875 75.515625 -56.796875 C 76.648438 -56.796875 78.835938 -56.851562 82.078125 -56.96875 L 83.96875 -57.0625 C 84.507812 -57.0625 84.914062 -56.863281 85.1875 -56.46875 C 85.457031 -56.082031 85.59375 -55.617188 85.59375 -55.078125 C 85.53125 -54.234375 85.378906 -53.707031 85.140625 -53.5 C 84.898438 -53.289062 84.476562 -53.1875 83.875 -53.1875 C 81.238281 -53.1875 79.1875 -52.75 77.71875 -51.875 C 76.25 -51.007812 75.179688 -49.40625 74.515625 -47.0625 L 59.765625 0.90625 L 55.53125 0.90625 L 40.953125 -42.03125 L 29.34375 0.90625 L 25.109375 0.90625 Z M 10.171875 -45.90625 " style="fill: rgb(255, 255, 255);"/>
    </g>
  </g>
</svg>